<?xml version="1.0" encoding="iso-8859-1"?>
<!-- Generator: Adobe Illustrator 19.0.0, SVG Export Plug-In . SVG Version: 6.00 Build 0)  -->
<svg version="1.1" id="Layer_1" xmlns="http://www.w3.org/2000/svg" xmlns:xlink="http://www.w3.org/1999/xlink" x="0px" y="0px"
	 viewBox="0 0 512 512" style="enable-background:new 0 0 512 512;" xml:space="preserve">
<path style="fill:#3CB54A;" d="M385.007,151.2L262.527,44c-6.024-5.256-15.016-5.256-21.04,0l-122.56,107.2
	c-6.936,6.048-10.928,14.8-10.96,24V496c0,8.84,7.16,16,16,16h256c8.84,0,16-7.16,16-16V175.28
	C395.959,166.048,391.967,157.272,385.007,151.2z M251.967,184c-17.672,0-32-14.328-32-32s14.328-32,32-32s32,14.328,32,32
	S269.639,184,251.967,184z"/>
<g>
	<path style="fill:#0E9347;" d="M251.967,104c-26.512,0-48,21.488-48,48s21.488,48,48,48s48-21.488,48-48S278.479,104,251.967,104z
		 M251.967,184c-17.672,0-32-14.328-32-32s14.328-32,32-32s32,14.328,32,32S269.639,184,251.967,184z"/>
	<path style="fill:#0E9347;" d="M369.887,137.92c-1.36,1.44-2.8,2.96-4.24,4.24c-22.512,20.728-56.168,23.648-81.92,7.12
		c0,0.88,0,1.76,0,2.72c-0.04,4.864-1.192,9.648-3.36,14l2.4,1.36c31.552,15.712,69.568,9.88,94.96-14.56
		c1.44-1.36,2.8-2.88,4.16-4.4L369.887,137.92z"/>
	<path style="fill:#0E9347;" d="M379.967,192v304h-240c-8.84,0-16,7.16-16,16h256c8.84,0,16-7.16,16-16l0,0V176l0,0
		C387.127,176,379.967,183.16,379.967,192z"/>
</g>
<path style="fill:#B2C4D0;" d="M319.967,0c-29.44-0.072-56.76,15.288-72,40.48c5.024-1.224,10.328,0.064,14.24,3.44l1.76,1.44
	c21.248-30.912,63.536-38.736,94.448-17.488s38.736,63.536,17.488,94.448s-63.536,38.736-94.448,17.488
	c-6.848-4.712-12.776-10.64-17.488-17.488c-6.08-2.528-12.808-3.032-19.2-1.44c8.224,16.68,21.72,30.176,38.4,38.4
	c41.624,20.392,91.888,3.184,112.288-38.432c20.392-41.624,3.184-91.896-38.44-112.288C345.487,2.912,332.807-0.016,319.967,0z"/>
<path style="fill:#8FAEBF;" d="M278.847,138L278.847,138c-5.84-4.488-10.92-9.896-15.04-16c-6.08-2.528-12.808-3.032-19.2-1.44
	c3.032,6.376,6.848,12.336,11.36,17.76l0,0C263.271,135.288,271.463,135.176,278.847,138z"/>
<g>
	<path style="fill:#ECF0F9;" d="M179.967,416h144c4.416,0,8,3.584,8,8l0,0c0,4.416-3.584,8-8,8h-144c-4.416,0-8-3.584-8-8l0,0
		C171.967,419.584,175.551,416,179.967,416z"/>
	<path style="fill:#ECF0F9;" d="M179.967,376h144c4.416,0,8,3.584,8,8l0,0c0,4.416-3.584,8-8,8h-144c-4.416,0-8-3.584-8-8l0,0
		C171.967,379.584,175.551,376,179.967,376z"/>
	<path style="fill:#ECF0F9;" d="M179.967,336h144c4.416,0,8,3.584,8,8l0,0c0,4.416-3.584,8-8,8h-144c-4.416,0-8-3.584-8-8l0,0
		C171.967,339.584,175.551,336,179.967,336z"/>
</g>
<g>
</g>
<g>
</g>
<g>
</g>
<g>
</g>
<g>
</g>
<g>
</g>
<g>
</g>
<g>
</g>
<g>
</g>
<g>
</g>
<g>
</g>
<g>
</g>
<g>
</g>
<g>
</g>
<g>
</g>
</svg>
